<svg width="32" height="32" viewBox="0 0 32 32" fill="none" xmlns="http://www.w3.org/2000/svg">
<rect width="32" height="32" fill="#1E1E1E"/>
<path d="M25.7504 25.7081C25.7504 26.1834 25.5621 26.6407 25.225 26.9761C24.8896 27.3132 24.4323 27.5015 23.9571 27.5015H7.81675C7.3415 27.5015 6.88419 27.3132 6.54883 26.9761C6.21168 26.6407 6.02338 26.1834 6.02338 25.7081V5.98107C6.02338 5.50583 6.21168 5.04852 6.54883 4.71316C6.88419 4.37601 7.3415 4.1877 7.81675 4.1877H17.8345C18.3098 4.1877 18.7653 4.37601 19.1024 4.71316L25.225 10.8357C25.5621 11.1729 25.7504 11.6284 25.7504 12.1036V25.7081Z" stroke="#E3E3E3" stroke-width="1.5" stroke-linecap="round" stroke-linejoin="round"/>
<path d="M9.61011 13.9436C9.93829 13.3195 10.3992 12.8048 10.948 12.448C11.4967 12.0893 12.1172 11.9028 12.7467 11.9028C13.3762 11.9028 13.9967 12.0893 14.5455 12.448C15.096 12.8048 15.5551 13.3195 15.8833 13.9436" stroke="#E3E3E3" stroke-width="1.5" stroke-linecap="round" stroke-linejoin="round"/>
<path d="M10.6826 9.8386C10.6826 10.9774 11.6061 11.901 12.7449 11.901C13.0337 11.901 13.308 11.8418 13.5555 11.736C14.2926 11.4204 14.8073 10.6887 14.8073 9.8386C14.8073 8.69802 13.8837 7.77443 12.7449 7.77443C11.6061 7.77443 10.6826 8.69802 10.6826 9.8386Z" stroke="#E3E3E3" stroke-width="1.5" stroke-linecap="round" stroke-linejoin="round"/>
<path d="M9.61011 18.5346H22.1637" stroke="#E3E3E3" stroke-width="1.5" stroke-linecap="round" stroke-linejoin="round"/>
<path d="M9.61011 23.0181H16.7836" stroke="#E3E3E3" stroke-width="1.5" stroke-linecap="round" stroke-linejoin="round"/>
</svg>
